<?xml version="1.0" standalone="no"?>
<!DOCTYPE svg PUBLIC "-//W3C//DTD SVG 20010904//EN"
 "http://www.w3.org/TR/2001/REC-SVG-20010904/DTD/svg10.dtd">
<svg version="1.0" xmlns="http://www.w3.org/2000/svg"
 width="800.000000pt" height="618.000000pt" viewBox="0 0 800.000000 618.000000"
 preserveAspectRatio="xMidYMid meet">

<g transform="translate(0.000000,618.000000) scale(0.100000,-0.100000)"
fill="#000000" stroke="none">
<path d="M1103 4963 c128 -148 399 -459 602 -693 203 -234 430 -495 505 -580
74 -86 212 -244 305 -352 94 -108 173 -193 176 -190 4 4 46 158 94 342 48 184
110 418 137 520 26 102 49 194 51 204 2 15 -41 39 -233 131 -307 147 -1380
657 -1630 775 -107 51 -199 96 -204 101 -6 5 -16 9 -23 9 -7 0 92 -120 220
-267z"/>
<path d="M930 5219 c14 -5 363 -112 775 -239 413 -127 931 -287 1152 -356 221
-68 410 -124 418 -124 16 0 795 294 825 311 13 7 13 8 0 9 -8 0 -397 50 -865
110 -467 61 -1111 144 -1430 186 -319 41 -647 83 -729 94 -161 22 -184 23
-146 9z"/>
<path d="M5342 4525 c-66 -21 -107 -58 -144 -132 -30 -61 -33 -77 -37 -175 -3
-93 0 -119 23 -200 43 -149 114 -278 211 -382 25 -28 42 -53 38 -57 -23 -23
-181 -104 -268 -138 -159 -62 -232 -75 -445 -74 -147 0 -206 4 -286 21 -96 19
-138 34 -338 116 -49 21 -120 44 -158 53 -62 14 -71 14 -85 1 -13 -13 -13 -17
2 -32 9 -9 28 -16 43 -16 31 0 175 -50 312 -108 155 -66 269 -85 505 -86 134
-1 220 4 260 13 156 35 308 96 447 180 l66 41 58 -35 c120 -72 221 -97 499
-120 204 -17 294 -32 420 -72 190 -60 248 -119 262 -266 10 -108 -39 -242
-112 -305 -27 -23 -24 -52 5 -52 26 0 88 74 122 146 55 118 49 286 -15 381
-76 114 -298 188 -654 218 -225 19 -301 31 -388 62 -79 29 -151 71 -139 82 5
4 32 25 59 46 249 195 408 412 451 614 35 171 -42 280 -200 281 -75 0 -130
-25 -185 -85 l-41 -44 -15 33 c-19 39 -60 72 -117 92 -49 17 -99 17 -156 -1z
m131 -46 c21 -5 52 -23 70 -39 30 -27 32 -33 37 -112 4 -71 8 -83 23 -83 13 0
25 18 42 59 45 112 123 176 212 176 56 0 118 -32 138 -70 45 -87 -13 -286
-128 -440 -79 -106 -251 -271 -350 -335 l-28 -18 -35 34 c-131 125 -244 380
-244 549 0 198 115 320 263 279z"/>
<path d="M2820 1211 l0 -281 65 0 64 0 3 126 3 126 118 -131 c90 -100 124
-131 143 -131 l24 0 0 274 c0 151 -3 277 -7 279 -5 3 -34 2 -65 0 l-57 -5 -3
-131 -3 -131 -121 139 c-74 87 -129 141 -142 143 l-22 3 0 -280z"/>
<path d="M779 1475 c0 0 -1 -28 -2 -62 l-2 -62 65 -3 65 -3 3 -207 2 -208 60
0 60 0 2 208 3 207 62 3 61 3 4 59 c1 33 1 60 -2 60 -4 0 -377 5 -381 5z"/>
<path d="M1440 1206 l0 -276 65 0 65 0 0 100 c0 79 3 100 14 100 8 0 37 -45
66 -100 l51 -100 75 0 75 0 -27 48 c-15 26 -42 73 -61 105 l-33 57 40 40 c80
80 63 225 -33 277 -24 13 -64 18 -164 21 l-133 4 0 -276z m234 128 c38 -37 1
-84 -66 -84 l-38 0 0 50 0 50 44 0 c27 0 51 -6 60 -16z"/>
<path d="M2104 1465 c-3 -8 -4 -101 -2 -207 3 -208 5 -217 61 -276 67 -70 199
-75 273 -10 66 58 69 70 69 298 l0 205 -62 3 -63 3 0 -189 c0 -171 -2 -192
-19 -213 -26 -32 -86 -32 -112 0 -17 21 -19 42 -19 212 l0 189 -60 0 c-44 0
-62 -4 -66 -15z"/>
<path d="M3557 1473 c-4 -3 -7 -127 -7 -275 l0 -268 65 0 64 0 3 83 3 82 58
-82 58 -83 81 0 80 0 -35 48 c-77 107 -157 223 -157 227 0 2 38 62 85 133 47
71 85 132 85 136 0 4 -33 6 -72 4 l-73 -3 -55 -84 -55 -85 -3 87 -3 87 -58 0
c-32 0 -61 -3 -64 -7z"/>
<path d="M4550 1458 c-85 -43 -115 -160 -61 -237 14 -19 51 -45 97 -67 85 -41
98 -58 64 -86 -30 -24 -90 -14 -172 30 -4 2 -10 -14 -13 -35 -3 -21 -8 -51
-10 -66 -4 -25 0 -30 42 -49 59 -26 164 -29 208 -6 106 57 128 187 43 265 -12
12 -50 34 -82 50 -68 32 -86 53 -67 77 15 18 76 21 117 6 15 -6 28 -9 30 -7 2
2 7 31 10 64 l7 60 -46 11 c-69 18 -118 15 -167 -10z"/>
<path d="M5087 1473 c-4 -3 -7 -127 -7 -275 l0 -268 65 0 64 0 3 103 3 102 63
3 c45 2 62 -1 63 -10 0 -7 0 -55 -1 -105 l-1 -93 65 0 66 0 0 275 0 276 -62
-3 -63 -3 -3 -102 -3 -103 -64 0 -65 0 0 105 0 105 -58 0 c-32 0 -62 -3 -65
-7z"/>
<path d="M5925 1456 c-201 -93 -208 -401 -12 -503 45 -23 64 -27 137 -27 73 0
92 4 136 27 101 52 150 146 142 270 -8 116 -72 209 -167 242 -69 23 -176 20
-236 -9z m202 -126 c47 -29 66 -72 61 -142 -3 -47 -10 -64 -33 -88 -36 -37
-87 -52 -138 -40 -68 15 -107 68 -107 145 0 88 55 145 140 145 27 0 58 -8 77
-20z"/>
<path d="M6570 1472 c0 -4 49 -129 108 -277 131 -327 130 -326 188 -176 21 55
42 101 45 101 4 0 24 -44 46 -97 61 -152 59 -155 186 164 59 148 107 274 107
281 0 10 -18 12 -67 10 l-68 -3 -46 -112 c-25 -62 -48 -115 -51 -118 -3 -3
-25 46 -49 110 -28 74 -49 114 -57 113 -7 -2 -32 -50 -54 -108 -22 -58 -44
-108 -47 -113 -4 -4 -29 47 -55 113 l-48 120 -69 0 c-38 0 -69 -3 -69 -8z"/>
</g>
</svg>
